<svg width="30" height="30" viewBox="0 0 30 30" fill="none" xmlns="http://www.w3.org/2000/svg">
<path fill-rule="evenodd" clip-rule="evenodd" d="M6.31582 8.68418C6.31582 3.9119 10.1984 0.0292397 14.9708 0.0292397C19.7431 0.0292397 23.6257 3.91184 23.6257 8.68418C23.6257 13.4565 19.7431 17.3391 14.9708 17.3391C8.00566 17.3391 2.33918 23.0056 2.33918 29.9707H0C0 25.9719 1.55725 22.2124 4.38492 19.3847C6.01547 17.7542 7.95633 16.5471 10.0738 15.8164C7.8058 14.2544 6.31582 11.6401 6.31582 8.68418ZM8.655 8.68424C8.655 12.1667 11.4882 15 14.9708 15C18.4533 15 21.2865 12.1668 21.2865 8.68424C21.2865 5.20166 18.4533 2.36842 14.9708 2.36842C11.4882 2.36842 8.655 5.20172 8.655 8.68424Z" fill="#222222"/>
<path d="M25.0877 22.7193V17.807H22.7486V22.7193H17.8362V25.0585H22.7486V29.9708H25.0877V25.0585H30V22.7193H25.0877Z" fill="#222222"/>
</svg>
