<svg width="32" height="30" viewBox="0 0 32 30" fill="none" xmlns="http://www.w3.org/2000/svg">
<path fill-rule="evenodd" clip-rule="evenodd" d="M0 13.67L15.6735 0.0587769L31.3469 13.67L29.7426 15.5176L28.2752 14.2432V26.2708C28.2752 28.2947 26.6286 29.9412 24.6048 29.9412H17.8757V17.9513H13.5936V29.9412H6.74222C4.71833 29.9412 3.07182 28.2947 3.07182 26.2708V14.2432L1.60445 15.5175L0 13.67ZM24.6048 27.4943C25.2794 27.4943 25.8282 26.9455 25.8282 26.2708V12.1182L15.6735 3.29964L5.51871 12.1182V26.2709C5.51871 26.9455 6.06753 27.4944 6.74216 27.4944H11.1467V15.5044H20.3227V27.4943H24.6048Z" fill="#222222"/>
</svg>
