<svg width="96" height="17" viewBox="0 0 96 17" fill="none" xmlns="http://www.w3.org/2000/svg">
<path d="M0 17H4V0H0V17Z" fill="#231200"/>
<path fill-rule="evenodd" clip-rule="evenodd" d="M13.7615 0H5V17H13.0798C13.4241 17 14.1233 16.9229 15.1769 16.768C15.9691 16.6521 16.5617 16.4668 16.9542 16.2111C17.5879 15.8017 18.0872 15.2451 18.4524 14.5415C18.8176 13.8382 19 13.0458 19 12.1643C19 11.0823 18.7434 10.1833 18.2303 9.46832C17.7172 8.75337 16.9164 8.24858 15.8279 7.95513C16.5444 7.67685 17.0887 7.29817 17.4606 6.81868C18.0187 6.09984 18.2973 5.23777 18.2973 4.23249C18.2973 3.03455 17.9067 2.02965 17.125 1.21779C16.3429 0.40593 15.2219 0 13.7615 0ZM9.7216 6.66806H11.7573C12.4873 6.66806 12.9952 6.52717 13.281 6.24462C13.5671 5.96245 13.7098 5.55497 13.7098 5.02099C13.7098 4.52672 13.5671 4.13986 13.281 3.86158C12.9952 3.58331 12.4974 3.44437 11.7884 3.44437H9.7216V6.66806ZM12.1086 13.347H9.7216V9.90304H12.0981C12.9177 9.90304 13.4911 10.056 13.8184 10.3611C14.1454 10.6666 14.3095 11.0702 14.3095 11.5727C14.3095 12.1141 14.1439 12.5449 13.8132 12.866C13.4828 13.1867 12.9143 13.347 12.1086 13.347Z" fill="#231200"/>
<path d="M30.1743 0H35V9.95815C35 10.9458 34.856 11.8784 34.5677 12.7555C34.2794 13.6329 33.8273 14.4002 33.2116 15.0576C32.5959 15.7142 31.9499 16.1757 31.2738 16.4417C30.3345 16.8136 29.2064 17 27.8897 17C27.1281 17 26.2972 16.9426 25.3966 16.8293C24.4964 16.7149 23.7436 16.4891 23.1387 16.1509C22.5338 15.813 21.9804 15.3323 21.4788 14.7097C20.9768 14.0871 20.6335 13.445 20.4486 12.7842C20.1494 11.7207 20 10.779 20 9.95815V0H24.8257V10.1958C24.8257 11.1069 25.0622 11.8191 25.5355 12.3318C26.0088 12.8442 26.6656 13.1002 27.5054 13.1002C28.3379 13.1002 28.9908 12.8481 29.4645 12.3429C29.9378 11.8382 30.1743 11.1218 30.1743 10.1958V0Z" fill="#231200"/>
<path d="M35 0H40.3631L43.5112 5.73478L46.6655 0H52L45.9244 9.88008V17H41.0856V9.88008L35 0Z" fill="#231200"/>
<path d="M47 17H52V12H47V17Z" fill="#236B75"/>
<path fill-rule="evenodd" clip-rule="evenodd" d="M58.688 14.1938H64.166L64.9475 17H70L64.1324 0H58.8695L53 17H57.927L58.688 14.1938ZM61.4415 4.40656L63.1652 10.5178H59.736L61.4415 4.40656Z" fill="#A36F42"/>
<path fill-rule="evenodd" clip-rule="evenodd" d="M69 0V17H73.7328V10.1006H74.1491C74.5789 10.1006 74.9639 10.2321 75.3037 10.4949C75.5533 10.6957 75.8377 11.1324 76.1567 11.8053L78.6752 17H84L81.7179 12.0739C81.607 11.8263 81.3872 11.4745 81.058 11.018C80.7288 10.5614 80.4777 10.2637 80.3042 10.124C80.0478 9.91534 79.6387 9.70634 79.0776 9.49733C79.7782 9.31947 80.3298 9.09568 80.7322 8.82479C81.3634 8.39978 81.8601 7.84478 82.2209 7.16056C82.5818 6.47634 82.762 5.66329 82.762 4.71987C82.762 3.6371 82.526 2.71936 82.0546 1.96586C81.5829 1.21198 80.9626 0.695895 80.1926 0.417615C79.423 0.138945 78.3102 0 76.8535 0H69ZM75.72 6.88812H73.7328V3.43238H75.803C76.6631 3.43238 77.2487 3.5795 77.5609 3.87335C77.8728 4.1672 78.0293 4.58831 78.0293 5.13709C78.0293 5.50839 77.9301 5.83688 77.7325 6.12294C77.5349 6.40901 77.28 6.58687 76.9682 6.65615C76.3505 6.81105 75.9346 6.88812 75.72 6.88812Z" fill="#236B75"/>
<path d="M82 0H96V4.19785H91.3026V17H86.697V4.19785H82V0Z" fill="#6E4061"/>
</svg>
