<?xml version="1.0" encoding="utf-8"?>
<svg width="15px" height="15px" viewBox="0 0 15 15" version="1.1" xmlns:xlink="http://www.w3.org/1999/xlink" xmlns="http://www.w3.org/2000/svg">
  <desc>Created with Lunacy</desc>
  <path d="M8.85023 1.0316C11.3783 2.82149 11.9771 6.32214 10.1868 8.85023L14.2567 12.8898C14.2716 12.9039 14.2853 12.9176 14.2994 12.9325C14.7455 13.4026 14.7267 14.1455 14.2567 14.5916C13.7866 15.0381 13.0437 15.0193 12.5972 14.5492L8.46188 10.4387C6.55866 11.5626 4.17299 11.4643 2.36856 10.1868C-0.159952 8.39687 -0.758293 4.89665 1.0316 2.36856C2.82149 -0.159952 6.32214 -0.758293 8.85023 1.0316ZM1.98706 5.61778C1.98834 7.61553 3.60801 9.23392 5.60576 9.23349L5.60833 9.23349C7.60693 9.23007 9.22446 7.60783 9.22104 5.60966C9.21719 3.61448 7.59837 1.99866 5.60319 1.99951C3.60502 2.00037 1.98663 3.62004 1.98706 5.61778Z" id="Shape" fill="#717171" fill-rule="evenodd" stroke="none" />
</svg>