<?xml version="1.0" standalone="no"?>
<!DOCTYPE svg PUBLIC "-//W3C//DTD SVG 20010904//EN"
 "http://www.w3.org/TR/2001/REC-SVG-20010904/DTD/svg10.dtd">
<svg version="1.0" xmlns="http://www.w3.org/2000/svg"
 width="260.000000pt" height="260.000000pt" viewBox="0 0 260.000000 260.000000"
 preserveAspectRatio="xMidYMid meet">
<metadata>
Created by potrace 1.11, written by Peter Selinger 2001-2013
</metadata>
<g transform="translate(0.000000,260.000000) scale(0.100000,-0.100000)"
fill="#000000" stroke="none">
<path d="M0 1865 l0 -425 100 0 100 0 0 425 0 425 -100 0 -100 0 0 -425z"/>
<path d="M250 1864 l0 -426 258 5 c273 4 310 10 362 54 65 54 95 167 70 259
-15 52 -66 110 -112 126 l-29 10 29 18 c109 67 115 255 10 333 -58 43 -88 47
-344 47 l-244 0 0 -426z m402 241 c36 -14 43 -83 13 -120 -19 -25 -27 -27 -90
-27 -39 0 -75 0 -80 1 -8 1 -11 59 -6 144 1 16 9 17 74 14 39 -3 80 -8 89 -12z
m25 -323 c23 -12 42 -56 37 -85 -4 -29 -33 -67 -52 -68 -9 -1 -52 -3 -94 -5
-87 -3 -80 -11 -80 86 0 95 -8 87 85 85 46 -1 92 -7 104 -13z"/>
<path d="M1001 2013 c2 -317 9 -370 64 -445 70 -96 153 -127 335 -124 104 1
121 4 173 29 63 32 114 87 149 163 22 47 23 64 28 349 l5 300 63 -105 c35 -58
103 -168 150 -246 l87 -141 -1 -177 0 -177 120 3 121 3 0 176 1 176 73 119
c41 65 84 135 96 154 13 19 48 77 79 128 l56 92 -133 0 -133 0 -21 -37 c-12
-21 -30 -54 -40 -73 -65 -118 -95 -170 -98 -170 -2 0 -38 63 -80 140 l-77 140
-254 0 -254 0 -1 -267 c0 -148 -2 -276 -4 -286 -5 -25 -35 -70 -54 -82 -59
-35 -147 -20 -186 33 -19 25 -20 44 -22 312 l-1 285 -122 3 -121 3 2 -278z"/>
<path d="M552 1033 c-64 -187 -239 -696 -247 -715 -7 -17 3 -18 118 -18 l125
0 17 70 c17 68 18 70 49 71 72 1 241 -2 244 -5 1 -2 11 -32 20 -67 l17 -64
220 0 220 0 0 160 c1 88 4 166 8 172 8 13 35 10 65 -6 11 -6 54 -81 98 -171
l78 -160 133 0 132 0 -20 46 c-10 26 -26 58 -33 73 -8 14 -30 60 -50 101 -41
86 -60 111 -105 138 l-33 20 37 12 c55 18 112 82 131 146 8 29 14 59 13 66 -5
37 -1 39 99 36 l97 -3 0 -318 0 -318 115 3 115 3 0 315 0 315 118 3 117 3 0
104 0 105 -350 0 -350 0 0 -47 c0 -46 -1 -47 -16 -25 -8 12 -34 32 -57 45 -40
21 -56 22 -309 25 l-268 4 -1 -349 0 -348 -45 130 c-25 72 -56 159 -69 195
-13 36 -47 134 -76 218 l-52 152 -132 0 -133 0 -40 -117z m979 -82 c19 -23 25
-65 13 -96 -13 -33 -89 -52 -194 -46 -12 1 -15 15 -14 74 1 39 2 78 3 86 1 10
20 12 87 10 76 -4 88 -7 105 -28z m-796 -62 c3 -13 20 -76 38 -139 19 -63 32
-117 30 -120 -5 -6 -163 -7 -163 0 0 3 5 22 11 44 6 21 12 46 14 55 5 19 44
160 51 180 6 18 14 10 19 -20z"/>
<path d="M0 425 l0 -125 125 0 125 0 0 125 0 125 -125 0 -125 0 0 -125z"/>
</g>
</svg>
